<svg width="436" height="227" viewBox="0 0 436 227" fill="none" xmlns="http://www.w3.org/2000/svg">
<path d="M186.727 29.6796C166.649 49.7573 157.652 59.4174 156.61 62.0691C155.568 64.5315 155.095 67.8462 155.284 72.108L155.568 78.4533L166.649 67.9409C172.71 62.0691 186.064 49.1891 196.292 39.3396C206.52 29.3955 215.138 21.2507 215.517 21.0613C215.896 20.9666 230.102 34.4149 246.96 50.9885L277.739 81.1998L278.023 73.8127C278.213 68.6986 277.834 65.5733 276.887 63.6791C275.751 61.4062 216.654 0.983568 215.612 0.983568C215.423 0.983568 202.353 13.8636 186.727 29.6796Z" fill="#CF3247"/>
<path d="M253.305 16.7995C252.926 17.0836 252.642 20.5878 252.642 24.5654V31.7631L258.609 38.2031C261.829 41.7073 264.765 44.5485 265.238 44.5485C266.28 44.5485 265.996 20.0195 264.954 17.936C264.102 16.5154 262.87 16.1366 258.893 16.1366C256.146 16.1366 253.589 16.4207 253.305 16.7995Z" fill="#05377F"/>
<path d="M211.161 30.6266L207.183 34.699V67.9409V101.183L211.445 100.236C214.476 99.5728 218.264 99.7623 225.367 100.899C230.765 101.751 235.406 102.793 235.879 103.172C236.258 103.551 236.447 110.843 236.353 119.461L236.069 134.993L231.333 136.129C228.776 136.792 225.651 137.55 224.514 137.834L222.336 138.308V124.102C222.336 111.411 222.147 109.801 220.726 109.233C218.548 108.381 213.15 108.381 209.835 109.233L207.183 109.896V130.068V150.241L210.498 151.851C215.138 154.124 216.18 153.934 231.239 149.578C238.626 147.4 245.539 145.411 246.77 145.127L248.854 144.748V118.041V91.2387L237.773 89.0604C220.537 85.7457 222.336 88.1134 222.336 68.6986C222.336 49.6626 221.768 50.3256 230.765 59.0385L236.542 64.6262V71.5398V78.4533L239.667 79.4951C241.277 79.9686 244.119 80.6316 245.823 81.0104L248.854 81.6733V69.8351C248.854 63.1109 248.475 57.8074 247.907 57.6179C247.433 57.4285 240.046 50.4203 231.523 41.8967C222.999 33.4678 215.801 26.5543 215.517 26.5543C215.328 26.5543 213.339 28.3537 211.161 30.6266Z" fill="#06306D"/>
<path d="M185.59 55.7238L169.301 71.5398V93.9852V116.525H171.479C172.615 116.525 177.161 115.673 181.612 114.631C186.064 113.589 189.947 112.737 190.42 112.737C190.799 112.737 191.083 117.188 191.083 122.586V132.531L186.632 131.015C184.075 130.163 181.897 129.405 181.707 129.216C181.234 128.837 180.855 125.996 180.76 122.397C180.665 120.787 180.192 120.314 179.055 120.692C178.108 120.976 175.551 121.639 173.278 122.208L169.206 123.249L169.49 130.921L169.774 138.687L174.983 140.486C181.897 142.854 200.838 148.725 201.785 148.725C202.164 148.725 202.448 137.171 202.448 123.155C202.448 107.433 202.069 97.584 201.501 97.584C201.027 97.584 196.955 98.4364 192.504 99.4781C179.813 102.414 180.665 102.982 180.665 91.6175V81.8627L185.874 76.7486L191.083 71.6345V82.8098C191.083 93.9852 191.083 93.9852 193.261 93.4169C194.398 93.1328 196.955 92.5646 198.944 92.2804L202.448 91.6175L202.543 69.7403C202.543 57.7126 202.637 46.0638 202.732 43.7908C202.827 41.6126 202.732 39.8131 202.448 39.8131C202.164 39.9079 194.587 47.0108 185.59 55.7238Z" fill="#06306D"/>
<path d="M252.642 102.698C252.642 147.305 251.885 143.611 260.692 140.297L265.428 138.497L265.712 106.865L265.901 75.1386L259.272 69.2668L252.642 63.3003V102.698Z" fill="#06306D"/>
<path d="M158.315 126.375L155 129.689L155.284 138.876L155.568 148.062L159.356 149.294C161.44 149.957 174.983 154.313 189.378 159.048L215.612 167.667L233.796 162.363C248.57 158.101 264.765 152.608 278.497 147.21C280.107 146.642 280.202 145.6 279.918 137.645C279.633 128.932 279.539 128.648 276.508 125.901C274.803 124.386 272.625 123.155 271.583 123.155C269.879 123.155 269.689 124.007 269.5 132.815L269.216 142.38L257.851 146.074C251.6 148.062 239.573 151.567 231.144 154.029L215.896 158.291L206.047 154.881C200.648 152.987 189.284 149.199 180.665 146.452L165.039 141.528L164.755 132.341C164.471 121.734 163.713 120.976 158.315 126.375Z" fill="#CF3247"/>
<path d="M8.13281 193.07H3.84375V190.105H8.13281C8.76562 190.105 9.27344 190 9.65625 189.789C10.0469 189.578 10.332 189.289 10.5117 188.922C10.6992 188.547 10.793 188.125 10.793 187.656C10.793 187.172 10.6992 186.723 10.5117 186.309C10.332 185.887 10.0469 185.547 9.65625 185.289C9.27344 185.031 8.76562 184.902 8.13281 184.902H5.22656V199H1.40625V181.938H8.13281C9.49219 181.938 10.6562 182.184 11.625 182.676C12.6016 183.168 13.3477 183.844 13.8633 184.703C14.3867 185.555 14.6484 186.531 14.6484 187.633C14.6484 188.734 14.3867 189.691 13.8633 190.504C13.3477 191.316 12.6016 191.949 11.625 192.402C10.6562 192.848 9.49219 193.07 8.13281 193.07ZM24.9141 181.938V199H21.1055V181.938H24.9141ZM30.1055 181.938V184.902H16.0195V181.938H30.1055ZM29.0508 197.266C29.0508 196.734 29.2383 196.289 29.6133 195.93C29.9961 195.57 30.4922 195.391 31.1016 195.391C31.7188 195.391 32.2109 195.57 32.5781 195.93C32.9531 196.289 33.1406 196.734 33.1406 197.266C33.1406 197.789 32.9531 198.23 32.5781 198.59C32.2109 198.949 31.7188 199.129 31.1016 199.129C30.4922 199.129 29.9961 198.949 29.6133 198.59C29.2383 198.23 29.0508 197.789 29.0508 197.266ZM50.9883 194.5C50.9883 194.211 50.9453 193.953 50.8594 193.727C50.7734 193.492 50.6172 193.277 50.3906 193.082C50.1641 192.887 49.8438 192.691 49.4297 192.496C49.0156 192.293 48.4727 192.086 47.8008 191.875C47.0352 191.625 46.3047 191.344 45.6094 191.031C44.9219 190.711 44.3086 190.34 43.7695 189.918C43.2305 189.496 42.8047 189.004 42.4922 188.441C42.1875 187.879 42.0352 187.223 42.0352 186.473C42.0352 185.746 42.1953 185.09 42.5156 184.504C42.8359 183.918 43.2852 183.418 43.8633 183.004C44.4414 182.582 45.1211 182.262 45.9023 182.043C46.6836 181.816 47.543 181.703 48.4805 181.703C49.7305 181.703 50.8281 181.926 51.7734 182.371C52.7266 182.809 53.4688 183.426 54 184.223C54.5312 185.012 54.7969 185.93 54.7969 186.977H51C51 186.516 50.9023 186.109 50.707 185.758C50.5195 185.398 50.2305 185.117 49.8398 184.914C49.457 184.711 48.9766 184.609 48.3984 184.609C47.8359 184.609 47.3633 184.695 46.9805 184.867C46.6055 185.031 46.3203 185.258 46.125 185.547C45.9375 185.836 45.8438 186.152 45.8438 186.496C45.8438 186.77 45.9141 187.02 46.0547 187.246C46.2031 187.465 46.4141 187.672 46.6875 187.867C46.9688 188.055 47.3125 188.234 47.7188 188.406C48.125 188.578 48.5898 188.742 49.1133 188.898C50.0273 189.188 50.8359 189.508 51.5391 189.859C52.25 190.211 52.8477 190.609 53.332 191.055C53.8164 191.5 54.1797 192.004 54.4219 192.566C54.6719 193.129 54.7969 193.766 54.7969 194.477C54.7969 195.234 54.6484 195.906 54.3516 196.492C54.0625 197.078 53.6406 197.578 53.0859 197.992C52.5391 198.398 51.8828 198.707 51.1172 198.918C50.3516 199.129 49.4961 199.234 48.5508 199.234C47.6914 199.234 46.8438 199.125 46.0078 198.906C45.1719 198.68 44.4141 198.336 43.7344 197.875C43.0625 197.414 42.5234 196.828 42.1172 196.117C41.7188 195.398 41.5195 194.547 41.5195 193.562H45.3398C45.3398 194.078 45.4141 194.516 45.5625 194.875C45.7109 195.227 45.9219 195.512 46.1953 195.73C46.4766 195.949 46.8164 196.105 47.2148 196.199C47.6133 196.293 48.0586 196.34 48.5508 196.34C49.1211 196.34 49.582 196.262 49.9336 196.105C50.293 195.941 50.5586 195.719 50.7305 195.438C50.9023 195.156 50.9883 194.844 50.9883 194.5ZM63.7734 193.07H59.4844V190.105H63.7734C64.4062 190.105 64.9141 190 65.2969 189.789C65.6875 189.578 65.9727 189.289 66.1523 188.922C66.3398 188.547 66.4336 188.125 66.4336 187.656C66.4336 187.172 66.3398 186.723 66.1523 186.309C65.9727 185.887 65.6875 185.547 65.2969 185.289C64.9141 185.031 64.4062 184.902 63.7734 184.902H60.8672V199H57.0469V181.938H63.7734C65.1328 181.938 66.2969 182.184 67.2656 182.676C68.2422 183.168 68.9883 183.844 69.5039 184.703C70.0273 185.555 70.2891 186.531 70.2891 187.633C70.2891 188.734 70.0273 189.691 69.5039 190.504C68.9883 191.316 68.2422 191.949 67.2656 192.402C66.2969 192.848 65.1328 193.07 63.7734 193.07ZM83.7422 196.047V199H75.1289V196.047H83.7422ZM76.4297 181.938V199H72.6094V181.938H76.4297ZM92.9414 185.184L88.5352 199H84.457L90.7734 181.938H93.3516L92.9414 185.184ZM96.5977 199L92.1797 185.184L91.7227 181.938H94.3359L100.676 199H96.5977ZM96.4102 192.648V195.602H87.5156V192.648H96.4102ZM108.609 181.938V199H104.801V181.938H108.609ZM113.801 181.938V184.902H99.7148V181.938H113.801ZM119.754 181.938V199H115.945V181.938H119.754ZM136.91 181.938V199H133.102L126.656 187.973V199H122.836V181.938H126.656L133.113 192.965V181.938H136.91ZM149.074 181.938H152.895V193.141C152.895 194.469 152.613 195.586 152.051 196.492C151.496 197.398 150.723 198.082 149.73 198.543C148.738 199.004 147.59 199.234 146.285 199.234C144.973 199.234 143.816 199.004 142.816 198.543C141.824 198.082 141.043 197.398 140.473 196.492C139.91 195.586 139.629 194.469 139.629 193.141V181.938H143.461V193.141C143.461 193.875 143.57 194.477 143.789 194.945C144.016 195.406 144.34 195.746 144.762 195.965C145.184 196.176 145.691 196.281 146.285 196.281C146.879 196.281 147.383 196.176 147.797 195.965C148.219 195.746 148.535 195.406 148.746 194.945C148.965 194.477 149.074 193.875 149.074 193.141V181.938ZM157.453 181.938H160.617L164.719 194.137L168.809 181.938H171.973L165.996 199H163.43L157.453 181.938ZM155.625 181.938H158.848L159.445 194.582V199H155.625V181.938ZM170.578 181.938H173.812V199H169.98V194.582L170.578 181.938ZM191.473 194.5C191.473 194.211 191.43 193.953 191.344 193.727C191.258 193.492 191.102 193.277 190.875 193.082C190.648 192.887 190.328 192.691 189.914 192.496C189.5 192.293 188.957 192.086 188.285 191.875C187.52 191.625 186.789 191.344 186.094 191.031C185.406 190.711 184.793 190.34 184.254 189.918C183.715 189.496 183.289 189.004 182.977 188.441C182.672 187.879 182.52 187.223 182.52 186.473C182.52 185.746 182.68 185.09 183 184.504C183.32 183.918 183.77 183.418 184.348 183.004C184.926 182.582 185.605 182.262 186.387 182.043C187.168 181.816 188.027 181.703 188.965 181.703C190.215 181.703 191.312 181.926 192.258 182.371C193.211 182.809 193.953 183.426 194.484 184.223C195.016 185.012 195.281 185.93 195.281 186.977H191.484C191.484 186.516 191.387 186.109 191.191 185.758C191.004 185.398 190.715 185.117 190.324 184.914C189.941 184.711 189.461 184.609 188.883 184.609C188.32 184.609 187.848 184.695 187.465 184.867C187.09 185.031 186.805 185.258 186.609 185.547C186.422 185.836 186.328 186.152 186.328 186.496C186.328 186.77 186.398 187.02 186.539 187.246C186.688 187.465 186.898 187.672 187.172 187.867C187.453 188.055 187.797 188.234 188.203 188.406C188.609 188.578 189.074 188.742 189.598 188.898C190.512 189.188 191.32 189.508 192.023 189.859C192.734 190.211 193.332 190.609 193.816 191.055C194.301 191.5 194.664 192.004 194.906 192.566C195.156 193.129 195.281 193.766 195.281 194.477C195.281 195.234 195.133 195.906 194.836 196.492C194.547 197.078 194.125 197.578 193.57 197.992C193.023 198.398 192.367 198.707 191.602 198.918C190.836 199.129 189.98 199.234 189.035 199.234C188.176 199.234 187.328 199.125 186.492 198.906C185.656 198.68 184.898 198.336 184.219 197.875C183.547 197.414 183.008 196.828 182.602 196.117C182.203 195.398 182.004 194.547 182.004 193.562H185.824C185.824 194.078 185.898 194.516 186.047 194.875C186.195 195.227 186.406 195.512 186.68 195.73C186.961 195.949 187.301 196.105 187.699 196.199C188.098 196.293 188.543 196.34 189.035 196.34C189.605 196.34 190.066 196.262 190.418 196.105C190.777 195.941 191.043 195.719 191.215 195.438C191.387 195.156 191.473 194.844 191.473 194.5ZM201.352 181.938V199H197.531V181.938H201.352ZM211.547 181.938L204.867 190.469L200.977 194.688L200.285 191.137L202.852 187.457L206.859 181.938H211.547ZM207.117 199L202.406 191.207L205.312 188.945L211.641 199H207.117ZM215.566 181.938L218.906 189.531L222.27 181.938H226.395L220.852 192.836V199H216.973V192.836L211.418 181.938H215.566ZM227.812 181.938H234.363C235.668 181.938 236.797 182.133 237.75 182.523C238.711 182.914 239.449 183.492 239.965 184.258C240.48 185.023 240.738 185.969 240.738 187.094C240.738 188.031 240.586 188.828 240.281 189.484C239.977 190.141 239.547 190.684 238.992 191.113C238.445 191.543 237.805 191.891 237.07 192.156L235.828 192.836H230.25L230.227 189.871H234.375C234.945 189.871 235.418 189.77 235.793 189.566C236.168 189.363 236.449 189.078 236.637 188.711C236.832 188.336 236.93 187.898 236.93 187.398C236.93 186.883 236.832 186.438 236.637 186.062C236.441 185.688 236.152 185.402 235.77 185.207C235.395 185.004 234.926 184.902 234.363 184.902H231.633V199H227.812V181.938ZM237.258 199L233.426 191.418L237.457 191.406L241.348 198.824V199H237.258ZM254.93 196.047V199H245.848V196.047H254.93ZM247.148 181.938V199H243.328V181.938H247.148ZM253.758 188.805V191.664H245.848V188.805H253.758ZM254.941 181.938V184.902H245.848V181.938H254.941ZM263.895 185.184L259.488 199H255.41L261.727 181.938H264.305L263.895 185.184ZM267.551 199L263.133 185.184L262.676 181.938H265.289L271.629 199H267.551ZM267.363 192.648V195.602H258.469V192.648H267.363ZM282.621 193.281H286.418C286.355 194.453 286.035 195.488 285.457 196.387C284.887 197.277 284.094 197.977 283.078 198.484C282.062 198.984 280.855 199.234 279.457 199.234C278.34 199.234 277.34 199.043 276.457 198.66C275.574 198.277 274.824 197.73 274.207 197.02C273.598 196.301 273.129 195.438 272.801 194.43C272.48 193.414 272.32 192.27 272.32 190.996V189.953C272.32 188.68 272.488 187.535 272.824 186.52C273.16 185.504 273.641 184.637 274.266 183.918C274.891 183.199 275.641 182.648 276.516 182.266C277.391 181.883 278.367 181.691 279.445 181.691C280.898 181.691 282.125 181.953 283.125 182.477C284.125 183 284.898 183.719 285.445 184.633C286 185.547 286.332 186.59 286.441 187.762H282.633C282.602 187.098 282.477 186.539 282.258 186.086C282.039 185.625 281.703 185.277 281.25 185.043C280.797 184.809 280.195 184.691 279.445 184.691C278.898 184.691 278.418 184.793 278.004 184.996C277.598 185.199 277.258 185.516 276.984 185.945C276.719 186.375 276.52 186.922 276.387 187.586C276.254 188.242 276.188 189.023 276.188 189.93V190.996C276.188 191.895 276.246 192.672 276.363 193.328C276.48 193.984 276.668 194.527 276.926 194.957C277.191 195.387 277.531 195.707 277.945 195.918C278.359 196.129 278.863 196.234 279.457 196.234C280.137 196.234 280.703 196.129 281.156 195.918C281.609 195.699 281.957 195.371 282.199 194.934C282.441 194.496 282.582 193.945 282.621 193.281ZM299.988 188.805V191.758H291.152V188.805H299.988ZM292.359 181.938V199H288.539V181.938H292.359ZM302.625 181.938V199H298.816V181.938H302.625ZM315.504 181.938V199H311.695V181.938H315.504ZM332.66 181.938V199H328.852L322.406 187.973V199H318.586V181.938H322.406L328.863 192.965V181.938H332.66ZM340.887 199H337.137L337.16 196.047H340.887C341.738 196.047 342.457 195.852 343.043 195.461C343.629 195.062 344.074 194.477 344.379 193.703C344.684 192.922 344.836 191.973 344.836 190.855V190.07C344.836 189.227 344.75 188.484 344.578 187.844C344.406 187.195 344.152 186.652 343.816 186.215C343.48 185.777 343.062 185.449 342.562 185.23C342.07 185.012 341.504 184.902 340.863 184.902H337.066V181.938H340.863C342.02 181.938 343.074 182.133 344.027 182.523C344.988 182.914 345.816 183.473 346.512 184.199C347.215 184.926 347.758 185.785 348.141 186.777C348.523 187.77 348.715 188.875 348.715 190.094V190.855C348.715 192.066 348.523 193.172 348.141 194.172C347.758 195.164 347.215 196.023 346.512 196.75C345.816 197.469 344.992 198.023 344.039 198.414C343.086 198.805 342.035 199 340.887 199ZM339.305 181.938V199H335.484V181.938H339.305ZM365.273 190.094V190.855C365.273 192.152 365.094 193.316 364.734 194.348C364.383 195.379 363.879 196.258 363.223 196.984C362.574 197.711 361.801 198.27 360.902 198.66C360.012 199.043 359.023 199.234 357.938 199.234C356.852 199.234 355.859 199.043 354.961 198.66C354.062 198.27 353.281 197.711 352.617 196.984C351.961 196.258 351.453 195.379 351.094 194.348C350.734 193.316 350.555 192.152 350.555 190.855V190.094C350.555 188.797 350.734 187.633 351.094 186.602C351.453 185.562 351.957 184.68 352.605 183.953C353.262 183.227 354.039 182.672 354.938 182.289C355.836 181.898 356.828 181.703 357.914 181.703C359 181.703 359.992 181.898 360.891 182.289C361.789 182.672 362.562 183.227 363.211 183.953C363.867 184.68 364.375 185.562 364.734 186.602C365.094 187.633 365.273 188.797 365.273 190.094ZM361.418 190.855V190.07C361.418 189.203 361.34 188.438 361.184 187.773C361.027 187.102 360.801 186.539 360.504 186.086C360.207 185.633 359.84 185.293 359.402 185.066C358.965 184.832 358.469 184.715 357.914 184.715C357.336 184.715 356.832 184.832 356.402 185.066C355.973 185.293 355.609 185.633 355.312 186.086C355.023 186.539 354.801 187.102 354.645 187.773C354.496 188.438 354.422 189.203 354.422 190.07V190.855C354.422 191.715 354.496 192.48 354.645 193.152C354.801 193.816 355.027 194.379 355.324 194.84C355.621 195.301 355.984 195.648 356.414 195.883C356.852 196.117 357.359 196.234 357.938 196.234C358.492 196.234 358.984 196.117 359.414 195.883C359.852 195.648 360.219 195.301 360.516 194.84C360.812 194.379 361.035 193.816 361.184 193.152C361.34 192.48 361.418 191.715 361.418 190.855ZM381.691 181.938V199H377.883L371.438 187.973V199H367.617V181.938H371.438L377.895 192.965V181.938H381.691ZM396.117 196.047V199H387.035V196.047H396.117ZM388.336 181.938V199H384.516V181.938H388.336ZM394.945 188.805V191.664H387.035V188.805H394.945ZM396.129 181.938V184.902H387.035V181.938H396.129ZM406.84 194.5C406.84 194.211 406.797 193.953 406.711 193.727C406.625 193.492 406.469 193.277 406.242 193.082C406.016 192.887 405.695 192.691 405.281 192.496C404.867 192.293 404.324 192.086 403.652 191.875C402.887 191.625 402.156 191.344 401.461 191.031C400.773 190.711 400.16 190.34 399.621 189.918C399.082 189.496 398.656 189.004 398.344 188.441C398.039 187.879 397.887 187.223 397.887 186.473C397.887 185.746 398.047 185.09 398.367 184.504C398.688 183.918 399.137 183.418 399.715 183.004C400.293 182.582 400.973 182.262 401.754 182.043C402.535 181.816 403.395 181.703 404.332 181.703C405.582 181.703 406.68 181.926 407.625 182.371C408.578 182.809 409.32 183.426 409.852 184.223C410.383 185.012 410.648 185.93 410.648 186.977H406.852C406.852 186.516 406.754 186.109 406.559 185.758C406.371 185.398 406.082 185.117 405.691 184.914C405.309 184.711 404.828 184.609 404.25 184.609C403.688 184.609 403.215 184.695 402.832 184.867C402.457 185.031 402.172 185.258 401.977 185.547C401.789 185.836 401.695 186.152 401.695 186.496C401.695 186.77 401.766 187.02 401.906 187.246C402.055 187.465 402.266 187.672 402.539 187.867C402.82 188.055 403.164 188.234 403.57 188.406C403.977 188.578 404.441 188.742 404.965 188.898C405.879 189.188 406.688 189.508 407.391 189.859C408.102 190.211 408.699 190.609 409.184 191.055C409.668 191.5 410.031 192.004 410.273 192.566C410.523 193.129 410.648 193.766 410.648 194.477C410.648 195.234 410.5 195.906 410.203 196.492C409.914 197.078 409.492 197.578 408.938 197.992C408.391 198.398 407.734 198.707 406.969 198.918C406.203 199.129 405.348 199.234 404.402 199.234C403.543 199.234 402.695 199.125 401.859 198.906C401.023 198.68 400.266 198.336 399.586 197.875C398.914 197.414 398.375 196.828 397.969 196.117C397.57 195.398 397.371 194.547 397.371 193.562H401.191C401.191 194.078 401.266 194.516 401.414 194.875C401.562 195.227 401.773 195.512 402.047 195.73C402.328 195.949 402.668 196.105 403.066 196.199C403.465 196.293 403.91 196.34 404.402 196.34C404.973 196.34 405.434 196.262 405.785 196.105C406.145 195.941 406.41 195.719 406.582 195.438C406.754 195.156 406.84 194.844 406.84 194.5ZM416.965 181.938V199H413.156V181.938H416.965ZM427.348 185.184L422.941 199H418.863L425.18 181.938H427.758L427.348 185.184ZM431.004 199L426.586 185.184L426.129 181.938H428.742L435.082 199H431.004ZM430.816 192.648V195.602H421.922V192.648H430.816Z" fill="#05377F"/>
<path d="M31.4091 223V211.364H35.3409C36.2538 211.364 37 211.528 37.5795 211.858C38.1629 212.184 38.5947 212.625 38.875 213.182C39.1553 213.739 39.2955 214.36 39.2955 215.045C39.2955 215.731 39.1553 216.354 38.875 216.915C38.5985 217.475 38.1705 217.922 37.5909 218.256C37.0114 218.585 36.2689 218.75 35.3636 218.75H32.5455V217.5H35.3182C35.9432 217.5 36.4451 217.392 36.8239 217.176C37.2027 216.96 37.4773 216.669 37.6477 216.301C37.822 215.93 37.9091 215.511 37.9091 215.045C37.9091 214.58 37.822 214.163 37.6477 213.795C37.4773 213.428 37.2008 213.14 36.8182 212.932C36.4356 212.72 35.928 212.614 35.2955 212.614H32.8182V223H31.4091ZM41.5653 223V211.364H45.4972C46.4063 211.364 47.1525 211.519 47.7358 211.83C48.3191 212.136 48.7509 212.559 49.0312 213.097C49.3116 213.634 49.4517 214.246 49.4517 214.932C49.4517 215.617 49.3116 216.225 49.0312 216.756C48.7509 217.286 48.321 217.703 47.7415 218.006C47.1619 218.305 46.4214 218.455 45.5199 218.455H42.3381V217.182H45.4744C46.0956 217.182 46.5956 217.091 46.9744 216.909C47.357 216.727 47.6335 216.47 47.804 216.136C47.9782 215.799 48.0653 215.398 48.0653 214.932C48.0653 214.466 47.9782 214.059 47.804 213.71C47.6297 213.362 47.3513 213.093 46.9688 212.903C46.5862 212.71 46.0805 212.614 45.4517 212.614H42.9744V223H41.5653ZM47.0426 217.773L49.9062 223H48.2699L45.4517 217.773H47.0426ZM61.6179 217.182C61.6179 218.409 61.3963 219.47 60.9531 220.364C60.5099 221.258 59.902 221.947 59.1293 222.432C58.3565 222.917 57.474 223.159 56.4815 223.159C55.4891 223.159 54.6065 222.917 53.8338 222.432C53.0611 221.947 52.4531 221.258 52.0099 220.364C51.5668 219.47 51.3452 218.409 51.3452 217.182C51.3452 215.955 51.5668 214.894 52.0099 214C52.4531 213.106 53.0611 212.417 53.8338 211.932C54.6065 211.447 55.4891 211.205 56.4815 211.205C57.474 211.205 58.3565 211.447 59.1293 211.932C59.902 212.417 60.5099 213.106 60.9531 214C61.3963 214.894 61.6179 215.955 61.6179 217.182ZM60.2543 217.182C60.2543 216.174 60.0857 215.324 59.7486 214.631C59.4152 213.938 58.9626 213.413 58.3906 213.057C57.8224 212.701 57.1861 212.523 56.4815 212.523C55.777 212.523 55.1387 212.701 54.5668 213.057C53.9986 213.413 53.5459 213.938 53.2088 214.631C52.8755 215.324 52.7088 216.174 52.7088 217.182C52.7088 218.189 52.8755 219.04 53.2088 219.733C53.5459 220.426 53.9986 220.951 54.5668 221.307C55.1387 221.663 55.777 221.841 56.4815 221.841C57.1861 221.841 57.8224 221.663 58.3906 221.307C58.9626 220.951 59.4152 220.426 59.7486 219.733C60.0857 219.04 60.2543 218.189 60.2543 217.182ZM63.9872 223V211.364H70.9645V212.614H65.3963V216.545H70.4418V217.795H65.3963V223H63.9872ZM73.3778 223V211.364H80.4006V212.614H74.7869V216.545H80.0369V217.795H74.7869V221.75H80.4915V223H73.3778ZM89.304 214.273C89.2358 213.697 88.9593 213.25 88.4744 212.932C87.9896 212.614 87.3949 212.455 86.6903 212.455C86.1752 212.455 85.7244 212.538 85.3381 212.705C84.9555 212.871 84.6563 213.1 84.4403 213.392C84.2282 213.684 84.1222 214.015 84.1222 214.386C84.1222 214.697 84.196 214.964 84.3438 215.188C84.4953 215.407 84.6884 215.591 84.9233 215.739C85.1581 215.883 85.4044 216.002 85.6619 216.097C85.9195 216.187 86.1562 216.261 86.3722 216.318L87.554 216.636C87.857 216.716 88.1941 216.826 88.5653 216.966C88.9403 217.106 89.2983 217.297 89.6392 217.54C89.9839 217.778 90.268 218.085 90.4915 218.46C90.715 218.835 90.8267 219.295 90.8267 219.841C90.8267 220.47 90.6619 221.038 90.3324 221.545C90.0066 222.053 89.5294 222.456 88.9006 222.756C88.2756 223.055 87.5161 223.205 86.6222 223.205C85.7888 223.205 85.0672 223.07 84.4574 222.801C83.8513 222.532 83.3741 222.157 83.0256 221.676C82.6809 221.195 82.4858 220.636 82.4403 220H83.8949C83.9328 220.439 84.0805 220.803 84.3381 221.091C84.5994 221.375 84.929 221.587 85.3267 221.727C85.7282 221.864 86.16 221.932 86.6222 221.932C87.16 221.932 87.643 221.845 88.071 221.67C88.4991 221.492 88.8381 221.246 89.0881 220.932C89.3381 220.614 89.4631 220.242 89.4631 219.818C89.4631 219.432 89.3551 219.117 89.1392 218.875C88.9233 218.633 88.6392 218.436 88.2869 218.284C87.9347 218.133 87.554 218 87.1449 217.886L85.7131 217.477C84.804 217.216 84.0843 216.843 83.554 216.358C83.0237 215.873 82.7585 215.239 82.7585 214.455C82.7585 213.803 82.9347 213.235 83.2869 212.75C83.643 212.261 84.1203 211.883 84.7188 211.614C85.321 211.341 85.9934 211.205 86.7358 211.205C87.4858 211.205 88.1525 211.339 88.7358 211.608C89.3191 211.873 89.7813 212.237 90.1222 212.699C90.4669 213.161 90.6487 213.686 90.6676 214.273H89.304ZM99.5071 214.273C99.4389 213.697 99.1624 213.25 98.6776 212.932C98.1927 212.614 97.598 212.455 96.8935 212.455C96.3783 212.455 95.9276 212.538 95.5412 212.705C95.1586 212.871 94.8594 213.1 94.6435 213.392C94.4313 213.684 94.3253 214.015 94.3253 214.386C94.3253 214.697 94.3991 214.964 94.5469 215.188C94.6984 215.407 94.8916 215.591 95.1264 215.739C95.3613 215.883 95.6075 216.002 95.8651 216.097C96.1226 216.187 96.3594 216.261 96.5753 216.318L97.7571 216.636C98.0601 216.716 98.3973 216.826 98.7685 216.966C99.1435 217.106 99.5014 217.297 99.8423 217.54C100.187 217.778 100.471 218.085 100.695 218.46C100.918 218.835 101.03 219.295 101.03 219.841C101.03 220.47 100.865 221.038 100.536 221.545C100.21 222.053 99.7325 222.456 99.1037 222.756C98.4787 223.055 97.7192 223.205 96.8253 223.205C95.992 223.205 95.2704 223.07 94.6605 222.801C94.0545 222.532 93.5772 222.157 93.2287 221.676C92.884 221.195 92.6889 220.636 92.6435 220H94.098C94.1359 220.439 94.2836 220.803 94.5412 221.091C94.8026 221.375 95.1321 221.587 95.5298 221.727C95.9313 221.864 96.3632 221.932 96.8253 221.932C97.3632 221.932 97.8461 221.845 98.2741 221.67C98.7022 221.492 99.0412 221.246 99.2912 220.932C99.5412 220.614 99.6662 220.242 99.6662 219.818C99.6662 219.432 99.5582 219.117 99.3423 218.875C99.1264 218.633 98.8423 218.436 98.4901 218.284C98.1378 218.133 97.7571 218 97.348 217.886L95.9162 217.477C95.0071 217.216 94.2874 216.843 93.7571 216.358C93.2268 215.873 92.9616 215.239 92.9616 214.455C92.9616 213.803 93.1378 213.235 93.4901 212.75C93.8461 212.261 94.3234 211.883 94.9219 211.614C95.5241 211.341 96.1965 211.205 96.9389 211.205C97.6889 211.205 98.3556 211.339 98.9389 211.608C99.5223 211.873 99.9844 212.237 100.325 212.699C100.67 213.161 100.852 213.686 100.871 214.273H99.5071ZM104.756 211.364V223H103.347V211.364H104.756ZM117.399 217.182C117.399 218.409 117.178 219.47 116.734 220.364C116.291 221.258 115.683 221.947 114.911 222.432C114.138 222.917 113.255 223.159 112.263 223.159C111.27 223.159 110.388 222.917 109.615 222.432C108.842 221.947 108.234 221.258 107.791 220.364C107.348 219.47 107.126 218.409 107.126 217.182C107.126 215.955 107.348 214.894 107.791 214C108.234 213.106 108.842 212.417 109.615 211.932C110.388 211.447 111.27 211.205 112.263 211.205C113.255 211.205 114.138 211.447 114.911 211.932C115.683 212.417 116.291 213.106 116.734 214C117.178 214.894 117.399 215.955 117.399 217.182ZM116.036 217.182C116.036 216.174 115.867 215.324 115.53 214.631C115.196 213.938 114.744 213.413 114.172 213.057C113.604 212.701 112.967 212.523 112.263 212.523C111.558 212.523 110.92 212.701 110.348 213.057C109.78 213.413 109.327 213.938 108.99 214.631C108.657 215.324 108.49 216.174 108.49 217.182C108.49 218.189 108.657 219.04 108.99 219.733C109.327 220.426 109.78 220.951 110.348 221.307C110.92 221.663 111.558 221.841 112.263 221.841C112.967 221.841 113.604 221.663 114.172 221.307C114.744 220.951 115.196 220.426 115.53 219.733C115.867 219.04 116.036 218.189 116.036 217.182ZM128.996 211.364V223H127.632L121.291 213.864H121.178V223H119.768V211.364H121.132L127.496 220.523H127.609V211.364H128.996ZM132.293 223H130.815L135.088 211.364H136.543L140.815 223H139.338L135.861 213.205H135.77L132.293 223ZM132.838 218.455H138.793V219.705H132.838V218.455ZM142.628 223V211.364H144.037V221.75H149.446V223H142.628ZM158.241 223L155.06 211.364H156.491L158.923 220.841H159.037L161.514 211.364H163.105L165.582 220.841H165.696L168.128 211.364H169.56L166.378 223H164.923L162.355 213.727H162.264L159.696 223H158.241ZM172.724 211.364V223H171.315V211.364H172.724ZM184.777 211.364V223H183.413L177.072 213.864H176.959V223H175.55V211.364H176.913L183.277 220.523H183.391V211.364H184.777ZM191.188 223H187.597V211.364H191.347C192.475 211.364 193.441 211.597 194.244 212.062C195.047 212.525 195.663 213.189 196.091 214.057C196.519 214.92 196.733 215.955 196.733 217.159C196.733 218.371 196.517 219.415 196.085 220.29C195.653 221.161 195.025 221.831 194.199 222.301C193.373 222.767 192.369 223 191.188 223ZM189.006 221.75H191.097C192.059 221.75 192.856 221.564 193.489 221.193C194.121 220.822 194.593 220.294 194.903 219.608C195.214 218.922 195.369 218.106 195.369 217.159C195.369 216.22 195.216 215.411 194.909 214.733C194.602 214.051 194.144 213.528 193.534 213.165C192.924 212.797 192.165 212.614 191.256 212.614H189.006V221.75ZM208.915 217.182C208.915 218.409 208.693 219.47 208.25 220.364C207.807 221.258 207.199 221.947 206.426 222.432C205.653 222.917 204.771 223.159 203.778 223.159C202.786 223.159 201.903 222.917 201.131 222.432C200.358 221.947 199.75 221.258 199.307 220.364C198.864 219.47 198.642 218.409 198.642 217.182C198.642 215.955 198.864 214.894 199.307 214C199.75 213.106 200.358 212.417 201.131 211.932C201.903 211.447 202.786 211.205 203.778 211.205C204.771 211.205 205.653 211.447 206.426 211.932C207.199 212.417 207.807 213.106 208.25 214C208.693 214.894 208.915 215.955 208.915 217.182ZM207.551 217.182C207.551 216.174 207.383 215.324 207.045 214.631C206.712 213.938 206.259 213.413 205.688 213.057C205.119 212.701 204.483 212.523 203.778 212.523C203.074 212.523 202.436 212.701 201.864 213.057C201.295 213.413 200.843 213.938 200.506 214.631C200.172 215.324 200.006 216.174 200.006 217.182C200.006 218.189 200.172 219.04 200.506 219.733C200.843 220.426 201.295 220.951 201.864 221.307C202.436 221.663 203.074 221.841 203.778 221.841C204.483 221.841 205.119 221.663 205.688 221.307C206.259 220.951 206.712 220.426 207.045 219.733C207.383 219.04 207.551 218.189 207.551 217.182ZM213.398 223L210.216 211.364H211.648L214.08 220.841H214.193L216.67 211.364H218.261L220.739 220.841H220.852L223.284 211.364H224.716L221.534 223H220.08L217.511 213.727H217.42L214.852 223H213.398ZM232.835 214.273C232.767 213.697 232.491 213.25 232.006 212.932C231.521 212.614 230.926 212.455 230.222 212.455C229.706 212.455 229.256 212.538 228.869 212.705C228.487 212.871 228.188 213.1 227.972 213.392C227.759 213.684 227.653 214.015 227.653 214.386C227.653 214.697 227.727 214.964 227.875 215.188C228.027 215.407 228.22 215.591 228.455 215.739C228.689 215.883 228.936 216.002 229.193 216.097C229.451 216.187 229.688 216.261 229.903 216.318L231.085 216.636C231.388 216.716 231.725 216.826 232.097 216.966C232.472 217.106 232.83 217.297 233.17 217.54C233.515 217.778 233.799 218.085 234.023 218.46C234.246 218.835 234.358 219.295 234.358 219.841C234.358 220.47 234.193 221.038 233.864 221.545C233.538 222.053 233.061 222.456 232.432 222.756C231.807 223.055 231.047 223.205 230.153 223.205C229.32 223.205 228.598 223.07 227.989 222.801C227.383 222.532 226.905 222.157 226.557 221.676C226.212 221.195 226.017 220.636 225.972 220H227.426C227.464 220.439 227.612 220.803 227.869 221.091C228.131 221.375 228.46 221.587 228.858 221.727C229.259 221.864 229.691 221.932 230.153 221.932C230.691 221.932 231.174 221.845 231.602 221.67C232.03 221.492 232.369 221.246 232.619 220.932C232.869 220.614 232.994 220.242 232.994 219.818C232.994 219.432 232.886 219.117 232.67 218.875C232.455 218.633 232.17 218.436 231.818 218.284C231.466 218.133 231.085 218 230.676 217.886L229.244 217.477C228.335 217.216 227.616 216.843 227.085 216.358C226.555 215.873 226.29 215.239 226.29 214.455C226.29 213.803 226.466 213.235 226.818 212.75C227.174 212.261 227.652 211.883 228.25 211.614C228.852 211.341 229.525 211.205 230.267 211.205C231.017 211.205 231.684 211.339 232.267 211.608C232.85 211.873 233.313 212.237 233.653 212.699C233.998 213.161 234.18 213.686 234.199 214.273H232.835ZM241.652 223H240.175L244.447 211.364H245.902L250.175 223H248.697L245.22 213.205H245.129L241.652 223ZM242.197 218.455H248.152V219.705H242.197V218.455ZM261.214 211.364V223H259.851L253.51 213.864H253.396V223H251.987V211.364H253.351L259.714 220.523H259.828V211.364H261.214ZM267.625 223H264.034V211.364H267.784C268.913 211.364 269.879 211.597 270.682 212.062C271.485 212.525 272.1 213.189 272.528 214.057C272.956 214.92 273.17 215.955 273.17 217.159C273.17 218.371 272.955 219.415 272.523 220.29C272.091 221.161 271.462 221.831 270.636 222.301C269.811 222.767 268.807 223 267.625 223ZM265.443 221.75H267.534C268.496 221.75 269.294 221.564 269.926 221.193C270.559 220.822 271.03 220.294 271.341 219.608C271.652 218.922 271.807 218.106 271.807 217.159C271.807 216.22 271.653 215.411 271.347 214.733C271.04 214.051 270.581 213.528 269.972 213.165C269.362 212.797 268.602 212.614 267.693 212.614H265.443V221.75ZM283.625 223H280.034V211.364H283.784C284.913 211.364 285.879 211.597 286.682 212.062C287.485 212.525 288.1 213.189 288.528 214.057C288.956 214.92 289.17 215.955 289.17 217.159C289.17 218.371 288.955 219.415 288.523 220.29C288.091 221.161 287.462 221.831 286.636 222.301C285.811 222.767 284.807 223 283.625 223ZM281.443 221.75H283.534C284.496 221.75 285.294 221.564 285.926 221.193C286.559 220.822 287.03 220.294 287.341 219.608C287.652 218.922 287.807 218.106 287.807 217.159C287.807 216.22 287.653 215.411 287.347 214.733C287.04 214.051 286.581 213.528 285.972 213.165C285.362 212.797 284.602 212.614 283.693 212.614H281.443V221.75ZM301.352 217.182C301.352 218.409 301.131 219.47 300.688 220.364C300.244 221.258 299.636 221.947 298.864 222.432C298.091 222.917 297.208 223.159 296.216 223.159C295.223 223.159 294.341 222.917 293.568 222.432C292.795 221.947 292.188 221.258 291.744 220.364C291.301 219.47 291.08 218.409 291.08 217.182C291.08 215.955 291.301 214.894 291.744 214C292.188 213.106 292.795 212.417 293.568 211.932C294.341 211.447 295.223 211.205 296.216 211.205C297.208 211.205 298.091 211.447 298.864 211.932C299.636 212.417 300.244 213.106 300.688 214C301.131 214.894 301.352 215.955 301.352 217.182ZM299.989 217.182C299.989 216.174 299.82 215.324 299.483 214.631C299.15 213.938 298.697 213.413 298.125 213.057C297.557 212.701 296.92 212.523 296.216 212.523C295.511 212.523 294.873 212.701 294.301 213.057C293.733 213.413 293.28 213.938 292.943 214.631C292.61 215.324 292.443 216.174 292.443 217.182C292.443 218.189 292.61 219.04 292.943 219.733C293.28 220.426 293.733 220.951 294.301 221.307C294.873 221.663 295.511 221.841 296.216 221.841C296.92 221.841 297.557 221.663 298.125 221.307C298.697 220.951 299.15 220.426 299.483 219.733C299.82 219.04 299.989 218.189 299.989 217.182ZM313.54 217.182C313.54 218.409 313.318 219.47 312.875 220.364C312.432 221.258 311.824 221.947 311.051 222.432C310.278 222.917 309.396 223.159 308.403 223.159C307.411 223.159 306.528 222.917 305.756 222.432C304.983 221.947 304.375 221.258 303.932 220.364C303.489 219.47 303.267 218.409 303.267 217.182C303.267 215.955 303.489 214.894 303.932 214C304.375 213.106 304.983 212.417 305.756 211.932C306.528 211.447 307.411 211.205 308.403 211.205C309.396 211.205 310.278 211.447 311.051 211.932C311.824 212.417 312.432 213.106 312.875 214C313.318 214.894 313.54 215.955 313.54 217.182ZM312.176 217.182C312.176 216.174 312.008 215.324 311.67 214.631C311.337 213.938 310.884 213.413 310.312 213.057C309.744 212.701 309.108 212.523 308.403 212.523C307.699 212.523 307.061 212.701 306.489 213.057C305.92 213.413 305.468 213.938 305.131 214.631C304.797 215.324 304.631 216.174 304.631 217.182C304.631 218.189 304.797 219.04 305.131 219.733C305.468 220.426 305.92 220.951 306.489 221.307C307.061 221.663 307.699 221.841 308.403 221.841C309.108 221.841 309.744 221.663 310.312 221.307C310.884 220.951 311.337 220.426 311.67 219.733C312.008 219.04 312.176 218.189 312.176 217.182ZM315.909 223V211.364H319.841C320.75 211.364 321.496 211.519 322.08 211.83C322.663 212.136 323.095 212.559 323.375 213.097C323.655 213.634 323.795 214.246 323.795 214.932C323.795 215.617 323.655 216.225 323.375 216.756C323.095 217.286 322.665 217.703 322.085 218.006C321.506 218.305 320.765 218.455 319.864 218.455H316.682V217.182H319.818C320.439 217.182 320.939 217.091 321.318 216.909C321.701 216.727 321.977 216.47 322.148 216.136C322.322 215.799 322.409 215.398 322.409 214.932C322.409 214.466 322.322 214.059 322.148 213.71C321.973 213.362 321.695 213.093 321.312 212.903C320.93 212.71 320.424 212.614 319.795 212.614H317.318V223H315.909ZM321.386 217.773L324.25 223H322.614L319.795 217.773H321.386ZM332.507 214.273C332.439 213.697 332.162 213.25 331.678 212.932C331.193 212.614 330.598 212.455 329.893 212.455C329.378 212.455 328.928 212.538 328.541 212.705C328.159 212.871 327.859 213.1 327.643 213.392C327.431 213.684 327.325 214.015 327.325 214.386C327.325 214.697 327.399 214.964 327.547 215.188C327.698 215.407 327.892 215.591 328.126 215.739C328.361 215.883 328.607 216.002 328.865 216.097C329.123 216.187 329.359 216.261 329.575 216.318L330.757 216.636C331.06 216.716 331.397 216.826 331.768 216.966C332.143 217.106 332.501 217.297 332.842 217.54C333.187 217.778 333.471 218.085 333.695 218.46C333.918 218.835 334.03 219.295 334.03 219.841C334.03 220.47 333.865 221.038 333.536 221.545C333.21 222.053 332.732 222.456 332.104 222.756C331.479 223.055 330.719 223.205 329.825 223.205C328.992 223.205 328.27 223.07 327.661 222.801C327.054 222.532 326.577 222.157 326.229 221.676C325.884 221.195 325.689 220.636 325.643 220H327.098C327.136 220.439 327.284 220.803 327.541 221.091C327.803 221.375 328.132 221.587 328.53 221.727C328.931 221.864 329.363 221.932 329.825 221.932C330.363 221.932 330.846 221.845 331.274 221.67C331.702 221.492 332.041 221.246 332.291 220.932C332.541 220.614 332.666 220.242 332.666 219.818C332.666 219.432 332.558 219.117 332.342 218.875C332.126 218.633 331.842 218.436 331.49 218.284C331.138 218.133 330.757 218 330.348 217.886L328.916 217.477C328.007 217.216 327.287 216.843 326.757 216.358C326.227 215.873 325.962 215.239 325.962 214.455C325.962 213.803 326.138 213.235 326.49 212.75C326.846 212.261 327.323 211.883 327.922 211.614C328.524 211.341 329.196 211.205 329.939 211.205C330.689 211.205 331.356 211.339 331.939 211.608C332.522 211.873 332.984 212.237 333.325 212.699C333.67 213.161 333.852 213.686 333.871 214.273H332.507ZM347.21 214.273C347.142 213.697 346.866 213.25 346.381 212.932C345.896 212.614 345.301 212.455 344.597 212.455C344.081 212.455 343.631 212.538 343.244 212.705C342.862 212.871 342.563 213.1 342.347 213.392C342.134 213.684 342.028 214.015 342.028 214.386C342.028 214.697 342.102 214.964 342.25 215.188C342.402 215.407 342.595 215.591 342.83 215.739C343.064 215.883 343.311 216.002 343.568 216.097C343.826 216.187 344.062 216.261 344.278 216.318L345.46 216.636C345.763 216.716 346.1 216.826 346.472 216.966C346.847 217.106 347.205 217.297 347.545 217.54C347.89 217.778 348.174 218.085 348.398 218.46C348.621 218.835 348.733 219.295 348.733 219.841C348.733 220.47 348.568 221.038 348.239 221.545C347.913 222.053 347.436 222.456 346.807 222.756C346.182 223.055 345.422 223.205 344.528 223.205C343.695 223.205 342.973 223.07 342.364 222.801C341.758 222.532 341.28 222.157 340.932 221.676C340.587 221.195 340.392 220.636 340.347 220H341.801C341.839 220.439 341.987 220.803 342.244 221.091C342.506 221.375 342.835 221.587 343.233 221.727C343.634 221.864 344.066 221.932 344.528 221.932C345.066 221.932 345.549 221.845 345.977 221.67C346.405 221.492 346.744 221.246 346.994 220.932C347.244 220.614 347.369 220.242 347.369 219.818C347.369 219.432 347.261 219.117 347.045 218.875C346.83 218.633 346.545 218.436 346.193 218.284C345.841 218.133 345.46 218 345.051 217.886L343.619 217.477C342.71 217.216 341.991 216.843 341.46 216.358C340.93 215.873 340.665 215.239 340.665 214.455C340.665 213.803 340.841 213.235 341.193 212.75C341.549 212.261 342.027 211.883 342.625 211.614C343.227 211.341 343.9 211.205 344.642 211.205C345.392 211.205 346.059 211.339 346.642 211.608C347.225 211.873 347.688 212.237 348.028 212.699C348.373 213.161 348.555 213.686 348.574 214.273H347.21ZM350.05 211.364H351.663L354.891 216.795H355.027L358.254 211.364H359.868L355.663 218.205V223H354.254V218.205L350.05 211.364ZM368.054 214.273C367.986 213.697 367.709 213.25 367.224 212.932C366.74 212.614 366.145 212.455 365.44 212.455C364.925 212.455 364.474 212.538 364.088 212.705C363.705 212.871 363.406 213.1 363.19 213.392C362.978 213.684 362.872 214.015 362.872 214.386C362.872 214.697 362.946 214.964 363.094 215.188C363.245 215.407 363.438 215.591 363.673 215.739C363.908 215.883 364.154 216.002 364.412 216.097C364.67 216.187 364.906 216.261 365.122 216.318L366.304 216.636C366.607 216.716 366.944 216.826 367.315 216.966C367.69 217.106 368.048 217.297 368.389 217.54C368.734 217.778 369.018 218.085 369.241 218.46C369.465 218.835 369.577 219.295 369.577 219.841C369.577 220.47 369.412 221.038 369.082 221.545C368.757 222.053 368.279 222.456 367.651 222.756C367.026 223.055 366.266 223.205 365.372 223.205C364.539 223.205 363.817 223.07 363.207 222.801C362.601 222.532 362.124 222.157 361.776 221.676C361.431 221.195 361.236 220.636 361.19 220H362.645C362.683 220.439 362.83 220.803 363.088 221.091C363.349 221.375 363.679 221.587 364.077 221.727C364.478 221.864 364.91 221.932 365.372 221.932C365.91 221.932 366.393 221.845 366.821 221.67C367.249 221.492 367.588 221.246 367.838 220.932C368.088 220.614 368.213 220.242 368.213 219.818C368.213 219.432 368.105 219.117 367.889 218.875C367.673 218.633 367.389 218.436 367.037 218.284C366.685 218.133 366.304 218 365.895 217.886L364.463 217.477C363.554 217.216 362.834 216.843 362.304 216.358C361.774 215.873 361.509 215.239 361.509 214.455C361.509 213.803 361.685 213.235 362.037 212.75C362.393 212.261 362.87 211.883 363.469 211.614C364.071 211.341 364.743 211.205 365.486 211.205C366.236 211.205 366.902 211.339 367.486 211.608C368.069 211.873 368.531 212.237 368.872 212.699C369.217 213.161 369.399 213.686 369.418 214.273H368.054ZM371.257 212.614V211.364H379.984V212.614H376.325V223H374.916V212.614H371.257ZM382.159 223V211.364H389.182V212.614H383.568V216.545H388.818V217.795H383.568V221.75H389.273V223H382.159ZM391.722 211.364H393.403L397.358 221.023H397.494L401.449 211.364H403.131V223H401.812V214.159H401.699L398.062 223H396.79L393.153 214.159H393.04V223H391.722V211.364Z" fill="black"/>
</svg>
